PathFileType	4	(X/Y/Z)	/Users/itak/Documents/Research/Walk-IL/dataset/trc/00124_00007.trc
DataRate	CameraRate	NumFrames	NumMarkers	Units	OrigDataRate	OrigDataStartFrame	OrigNumFrames
100.000000	100.000000	4	53	mm	100.000000	185	740
Frame#	Time	RPSI			LPSI			L3			STRN			T10			C7			CLAV			RBAK			LBAK			LSHO			LUPA			LAEL			LAOL			LWTS			LWPS			LFRA			LIFD			LHPS			LHTS			RSHO			RUPA			RAEL			RAOL			RWTS			RWPS			RFRA			RIFD			RHTS			RHPS			RBHD			LFHD			RFHD			LBHD			LHIP			RHIP			RASI			LASI			LKNE			LTHI			LANK			LTIP			LTOE			LMT1			LMT5			LHEE			RKNE			RTHI			RANK			RTIP			RTOE			RMT1			RMT5			RHEE			
		X1	Y1	Z1	X2	Y2	Z2	X3	Y3	Z3	X4	Y4	Z4	X5	Y5	Z5	X6	Y6	Z6	X7	Y7	Z7	X8	Y8	Z8	X9	Y9	Z9	X10	Y10	Z10	X11	Y11	Z11	X12	Y12	Z12	X13	Y13	Z13	X14	Y14	Z14	X15	Y15	Z15	X16	Y16	Z16	X17	Y17	Z17	X18	Y18	Z18	X19	Y19	Z19	X20	Y20	Z20	X21	Y21	Z21	X22	Y22	Z22	X23	Y23	Z23	X24	Y24	Z24	X25	Y25	Z25	X26	Y26	Z26	X27	Y27	Z27	X28	Y28	Z28	X29	Y29	Z29	X30	Y30	Z30	X31	Y31	Z31	X32	Y32	Z32	X33	Y33	Z33	X34	Y34	Z34	X35	Y35	Z35	X36	Y36	Z36	X37	Y37	Z37	X38	Y38	Z38	X39	Y39	Z39	X40	Y40	Z40	X41	Y41	Z41	X42	Y42	Z42	X43	Y43	Z43	X44	Y44	Z44	X45	Y45	Z45	X46	Y46	Z46	X47	Y47	Z47	X48	Y48	Z48	X49	Y49	Z49	X50	Y50	Z50	X51	Y51	Z51	X52	Y52	Z52	X53	Y53	Z53	

186	1.85	771.78857421875	1088.126831054688	721.6571655273438	651.3716430664062	1084.810791015625	658.5989379882812	702.0398559570312	1118.838745117188	691.6478881835938	798.0597534179688	1318.998291015625	500.0682678222656	668.5340576171875	1270.078735351562	719.1077880859375	656.7513427734375	1559.842895507812	671.052490234375	770.260498046875	1453.574462890625	526.16650390625	710.6387939453125	1379.57470703125	767.1455078125	568.4022216796875	1532.93994140625	619.6904296875	561.82763671875	1516.014770507812	511.1344604492188	500.303466796875	1381.163818359375	486.0931091308594	506.2350769042969	1163.07763671875	450.0625305175781	514.5488891601562	1146.993408203125	537.1320190429688	618.1599731445312	916.1065063476562	382.7595825195312	550.5187377929688	883.025146484375	431.0036010742188	520.8984375	1048.810668945312	429.1112976074219	657.7620239257812	725.4706420898438	376.5977783203125	573.5726318359375	810.4033203125	404.0590209960938	625.3226318359375	828.1240844726562	359.2845458984375	839.1112060546875	1551.738159179688	724.9591674804688	885.5369873046875	1482.421020507812	777.8968505859375	921.9721069335938	1191.496215820312	811.9791870117188	839.2249755859375	1179.433959960938	758.8674926757812	1030.73193359375	964.3651733398438	682.7408447265625	1011.120727539062	941.7244262695312	759.6255493164062	957.7906494140625	1121.411254882812	801.4810791015625	1054.592651367188	774.438232421875	644.0093994140625	1068.312866210938	861.2139892578125	658.9353637695312	1050.269897460938	847.9032592773438	729.51123046875	751.5294189453125	1752.354248046875	642.6417846679688	675.3720703125	1769.1435546875	435.9827270507812	796.2201538085938	1797.4111328125	474.8292236328125	624.0375366210938	1728.734741210938	607.3680419921875	595.9576416015625	990.8836059570312	528.4472045898438	939.4691772460938	998.7318725585938	659.9981079101562	922.4282836914062	1070.40673828125	566.0092163085938	683.1808471679688	1051.879638671875	447.3269348144531	655.365234375	492.6462707519531	623.0166625976562	617.6241455078125	639.3893432617188	593.0438232421875	563.0272216796875	69.3685302734375	922.3923950195312	558.8775024414062	293.5263671875	790.3016967773438	765.7930297851562	36.48632049560547	814.16357421875	728.7923583984375	55.4427375793457	887.9353637695312	637.1903076171875	41.84724426269531	824.1854248046875	557.5531005859375	108.0089263916016	1009.061584472656	974.994873046875	542.1531372070312	489.195556640625	975.8975830078125	801.255615234375	586.6224975585938	995.85986328125	25.75642204284668	412.4311218261719	995.24267578125	408.8127136230469	473.2869873046875	1013.757263183594	97.89163208007812	192.8868865966797	957.6544799804688	75.02768707275391	229.5393676757812	1054.90869140625	53.56312561035156	297.0559692382812	931.5376586914062	20.58390045166016	451.6715087890625	
187	1.86	779.0757446289062	1088.39697265625	711.6543579101562	657.8681640625	1084.426025390625	650.0221557617188	708.9782104492188	1118.74853515625	682.3435668945312	803.0941772460938	1319.253173828125	490.215576171875	675.52587890625	1269.857788085938	710.4339599609375	663.6395263671875	1559.89404296875	663.6158447265625	775.7576293945312	1453.66650390625	517.337890625	718.208740234375	1379.047485351562	758.5889282226562	574.7693481445312	1533.077514648438	612.8575439453125	567.2564697265625	1516.207153320312	504.2715454101562	505.3023376464844	1381.328247070312	479.841064453125	510.0010070800781	1163.1591796875	444.8952026367188	519.3446044921875	1147.559326171875	531.979248046875	617.551025390625	913.6127319335938	379.3686218261719	549.9954833984375	882.4697265625	428.8689270019531	523.0262451171875	1048.585571289062	424.9925537109375	653.7357177734375	722.1790771484375	375.7198486328125	571.3802490234375	809.0278930664062	402.7713317871094	622.9092407226562	825.1314086914062	357.1465148925781	846.5631103515625	1551.1845703125	715.84130859375	893.26025390625	1481.588134765625	768.1663818359375	929.1089477539062	1190.526611328125	801.3814697265625	846.0776977539062	1178.80517578125	748.7412109375	1036.238525390625	963.0773315429688	671.3984375	1016.893249511719	940.4508666992188	748.3890380859375	964.6441650390625	1120.34326171875	790.6094360351562	1059.142211914062	773.1012573242188	632.458251953125	1073.271606445312	859.8006591796875	647.3543090820312	1055.5009765625	846.4985961914062	718.01806640625	758.1691284179688	1752.527709960938	634.3252563476562	679.9271850585938	1769.171020507812	428.4512634277344	801.1727905273438	1797.466918945312	466.0703125	630.3748168945312	1728.895629882812	600.3817749023438	601.2546997070312	990.1915893554688	520.627685546875	946.1832885742188	999.503173828125	647.3984375	927.9677124023438	1070.859130859375	553.734375	687.234375	1051.885498046875	438.4175720214844	661.189208984375	490.9449462890625	610.7660522460938	623.4400024414062	638.3060302734375	582.3590698242188	563.5758666992188	73.92324066162109	919.575439453125	563.0193481445312	296.1336975097656	782.7286987304688	765.9278564453125	36.21918106079102	813.7607421875	729.0360717773438	56.69427871704102	886.3430786132812	637.4165649414062	41.56203460693359	823.4619140625	558.9080200195312	116.1317901611328	1004.716003417969	978.324951171875	543.0311279296875	475.1041259765625	980.349853515625	802.2991943359375	571.7706298828125	996.2393188476562	25.25634765625	410.1070556640625	998.1357421875	409.0032043457031	460.5606994628906	1009.134155273438	87.98300170898438	186.4013824462891	953.9788208007812	66.89235687255859	225.4339294433594	1052.810424804688	48.83005905151367	292.2354431152344	932.5765991210938	21.81943130493164	450.6178283691406	
188	1.87	786.1729736328125	1089.079345703125	701.599365234375	664.2095336914062	1084.348510742188	641.300537109375	715.6803588867188	1119.041259765625	672.9730834960938	807.9673461914062	1319.900390625	480.2709655761719	682.3353271484375	1269.994995117188	701.6614990234375	670.5023803710938	1560.27978515625	656.131591796875	781.140625	1454.146362304688	508.4362487792969	725.7418212890625	1378.887817382812	749.9284057617188	581.1179809570312	1533.629760742188	606.0570068359375	572.5922241210938	1516.840942382812	497.4078369140625	510.2061157226562	1381.923461914062	473.6416320800781	513.6420288085938	1163.692749023438	439.9384765625	524.104736328125	1148.596557617188	526.98779296875	616.8094482421875	911.7100219726562	376.1367797851562	549.4782104492188	882.4931030273438	426.9423828125	525.033447265625	1048.8544921875	421.0881958007812	649.5995483398438	719.625244140625	374.8988342285156	569.1465454101562	808.3018798828125	401.6673278808594	620.3450317382812	822.8048095703125	355.1376647949219	853.9742431640625	1550.974487304688	706.60009765625	900.9545288085938	1481.105834960938	758.2951049804688	936.2240600585938	1189.91845703125	790.565673828125	852.9107055664062	1178.563232421875	738.4609985351562	1041.566284179688	961.99365234375	659.9816284179688	1022.505615234375	939.4713134765625	737.1132202148438	971.4437866210938	1119.629516601562	779.540283203125	1063.328857421875	771.9098510742188	621.0281372070312	1077.9482421875	858.5350341796875	635.7898559570312	1060.483764648438	845.3280029296875	706.563232421875	764.8106689453125	1753.069946289062	625.9118041992188	684.3892822265625	1769.48974609375	420.8860168457031	806.0357666015625	1797.837280273438	457.2064208984375	636.6987915039062	1729.416870117188	593.3822631835938	606.4672241210938	989.6826171875	512.7681884765625	952.743408203125	1000.910461425781	634.7246704101562	933.3256225585938	1071.82080078125	541.3421630859375	691.225341796875	1052.208374023438	429.4636840820312	667.2626342773438	489.2511291503906	597.5201416015625	629.4339599609375	637.2827758789062	571.07763671875	564.3464965820312	79.00153350830078	916.1520385742188	567.4951171875	299.1453857421875	774.241455078125	766.1124877929688	35.88509368896484	813.2435913085938	729.428466796875	58.16594696044922	884.3845825195312	637.7333984375	41.12706756591797	822.76220703125	560.7247314453125	125.1263198852539	999.3353271484375	981.9926147460938	544.3743286132812	461.2569274902344	984.7743530273438	803.9888305664062	557.0044555664062	997.216064453125	24.84719657897949	408.3361511230469	1001.514282226562	409.6704406738281	448.2337951660156	1005.365661621094	78.94050598144531	181.0314025878906	951.1041259765625	59.84885406494141	222.2864685058594	1051.5283203125	44.64862442016602	288.2099304199219	934.2163696289062	23.1401538848877	450.0458374023438	
189	1.88	793.0741577148438	1090.110473632812	691.4512329101562	670.387939453125	1084.596435546875	632.4869384765625	722.1755981445312	1119.698974609375	663.587646484375	812.6522827148438	1320.917724609375	470.2618103027344	688.9881591796875	1270.457153320312	692.844970703125	677.3152465820312	1560.968627929688	648.6112060546875	786.3834838867188	1455.008056640625	499.4554443359375	733.2300415039062	1379.07666015625	741.1629638671875	587.4320068359375	1534.57177734375	599.3218994140625	577.8048095703125	1517.917114257812	490.5737915039062	514.966064453125	1382.970581054688	467.5119018554688	517.12744140625	1164.699584960938	435.1998901367188	528.773193359375	1150.136596679688	522.1500854492188	615.9757080078125	910.4290161132812	373.0658874511719	549.0068969726562	883.0928955078125	425.2173156738281	526.9161376953125	1049.62841796875	417.3979797363281	645.423095703125	717.839111328125	374.1179504394531	566.9259033203125	808.2440185546875	400.7291259765625	617.6998901367188	821.181396484375	353.2507629394531	861.3137817382812	1551.105590820312	697.2234497070312	908.6002197265625	1480.983520507812	748.274169921875	943.303466796875	1189.68994140625	779.5462036132812	859.70849609375	1178.722778320312	728.0545654296875	1046.715576171875	961.140625	648.4862670898438	1027.989501953125	938.8171997070312	725.7963256835938	978.1815795898438	1119.294311523438	768.2861938476562	1067.134399414062	770.8833618164062	609.7232055664062	1082.338500976562	857.4389038085938	624.2338256835938	1065.242431640625	844.4207763671875	695.14501953125	771.427001953125	1753.939575195312	617.4209594726562	688.742431640625	1770.0888671875	413.30029296875	810.79736328125	1798.49560546875	448.2601318359375	642.9837036132812	1730.266967773438	586.3701171875	611.5826416015625	989.3958129882812	504.9221801757812	959.130859375	1002.859436035156	622.0214233398438	938.4805297851562	1073.249877929688	528.8787841796875	695.1078491210938	1052.839599609375	420.5292358398438	673.5496215820312	487.6130981445312	583.2431030273438	635.5811767578125	636.3394775390625	559.1969604492188	565.3978271484375	84.615966796875	912.0282592773438	572.3019409179688	302.5711669921875	764.7533569335938	766.35791015625	35.46987152099609	812.6009521484375	729.998779296875	59.89858245849609	881.9635620117188	638.171142578125	40.5590705871582	822.0950317382812	563.0731811523438	134.9763946533203	992.7460327148438	985.9561157226562	545.9616088867188	447.891845703125	989.2617797851562	806.17626953125	542.5345458984375	998.5769653320312	24.46511840820312	407.0433959960938	1005.246215820312	410.6068115234375	436.5697021484375	1002.611877441406	71.0628662109375	176.8321075439453	949.1243286132812	54.11875534057617	220.0156860351562	1051.022827148438	41.12150192260742	285.0351257324219	936.201171875	24.38935852050781	449.7937622070312	
